<?xml version="1.0" encoding="UTF-8"?>
<svg width="205px" height="36px" viewBox="0 0 205 36" version="1.1" xmlns="http://www.w3.org/2000/svg" xmlns:xlink="http://www.w3.org/1999/xlink">
    <title>884E712F-A04F-40B9-AA38-7134DBB24B4E@3x</title>
    <g id="UI" stroke="none" stroke-width="1" fill="none" fill-rule="evenodd">
        <g id="Loading-mobile" transform="translate(-112.000000, -445.000000)" fill="#FFFFFF">
            <g id="logo" transform="translate(112.000000, 445.000000)">
                <path d="M200.191539,0.0889826087 L200.191539,20.4000261 C200.191539,20.874287 200.020148,21.2820261 199.680496,21.6224609 C199.339278,21.9628957 198.931539,22.1327217 198.458061,22.1327217 L182.991365,22.1327217 C182.517887,22.1327217 182.110148,21.9628957 181.76893,21.6224609 C181.428496,21.2820261 181.25867,20.874287 181.25867,20.4000261 L181.25867,0.0889826087 L177.613278,0.0889826087 L177.613278,20.4000261 C177.613278,21.8815043 178.139191,23.1485478 179.1918,24.2003739 C180.242843,25.2522 181.509887,25.778113 182.991365,25.778113 L200.191539,25.778113 L200.191539,30.6224609 C200.191539,31.0967217 200.02093,31.5044609 199.680496,31.8448957 C199.340061,32.1853304 198.932322,32.3551565 198.458061,32.3551565 L182.369974,32.3105478 L182.369974,35.9997652 L197.45867,35.9997652 C199.916061,35.7767217 199.606148,33.7294174 200.649365,32.3535913 C201.61667,31.0779391 203.705452,31.4653304 203.827539,28.7230696 L203.836148,28.7230696 L203.836148,0.0889826087 L200.191539,0.0889826087 Z" id="Fill-1"></path>
                <path d="M146.16133,20.3997913 C146.16133,20.8740522 145.983678,21.2817913 145.627591,21.6222261 C145.272287,21.9634435 144.856722,22.1332696 144.384026,22.1332696 L128.91733,22.1332696 C128.442287,22.1332696 128.03533,21.9634435 127.694113,21.6222261 C127.353678,21.2817913 127.183852,20.8740522 127.183852,20.3997913 L127.183852,0.000313043478 L123.539243,0.000313043478 L123.539243,19.4011826 C123.76307,21.8585739 125.809591,21.5478783 127.185417,22.5918783 C128.4822,23.5748348 128.05333,25.7191826 130.94507,25.7778783 L144.384026,25.7778783 C145.894461,25.7778783 147.175591,25.2519652 148.2282,24.2001391 C149.279243,23.1490957 149.805939,21.8820522 149.805939,20.3997913 L149.805939,0.000313043478 L146.16133,0.000313043478 L146.16133,20.3997913 Z" id="Fill-4"></path>
                <path d="M97.1920957,21.6222261 C96.8516609,21.2817913 96.6810522,20.8740522 96.6810522,20.3997913 L96.6810522,5.37918261 C96.6810522,4.90413913 96.8516609,4.49718261 97.1920957,4.15674783 C97.533313,3.81553043 97.9410522,3.64570435 98.4145304,3.64570435 L119.214704,3.64492174 L119.214704,0.000313043478 L100.443052,0.00109565217 C97.5505304,0.0590086957 97.9801826,2.20413913 96.6834,3.18709565 C95.3067913,4.23031304 93.0215739,3.84213913 93.0363713,6.3777913 L93.0363713,20.3997913 C93.0363713,21.8820522 93.5623565,23.1490957 94.6149652,24.2001391 C95.6660087,25.2519652 96.9322696,25.7778783 98.4145304,25.7778783 L119.303139,25.7778783 L119.303139,22.1332696 L98.4145304,22.1332696 C97.9402696,22.1332696 97.533313,21.9634435 97.1920957,21.6222261" id="Fill-6"></path>
                <path d="M156.436122,1.57781739 C155.384296,2.62964348 154.858383,3.89668696 154.858383,5.37816522 L154.858383,15.110687 C154.802035,16.712687 158.049078,17.8459043 158.505339,18.3013826 C158.960817,18.7576435 158.505339,21.4920783 158.505339,21.4920783 L158.505339,25.8089478 L162.151513,25.8089478 L162.151513,21.4920783 C162.151513,20.1248609 159.872557,18.7576435 158.960817,17.8459043 C158.505339,17.3896435 158.505339,15.110687 158.505339,15.110687 L158.502991,5.37816522 C158.502991,4.90390435 158.672817,4.49616522 159.013252,4.15573043 C159.35447,3.81529565 159.762209,3.64468696 160.235687,3.64468696 L174.724904,3.64468696 L174.724904,7.82608696e-05 L160.235687,7.82608696e-05 C158.754209,7.82608696e-05 157.487165,0.526773913 156.436122,1.57781739" id="Fill-8"></path>
                <path d="M71.4592957,1.57781739 C70.4074696,2.62964348 69.8813827,3.89668696 69.8813827,5.37816522 L69.8813827,9.10416522 C69.8541652,10.7069478 73.0722522,11.8393826 73.528513,12.2948609 C73.9839913,12.7503391 73.528513,15.4855565 73.528513,15.4855565 L73.528513,25.8089478 L77.174687,25.8089478 L77.174687,15.4855565 C77.174687,14.1183391 74.8957304,12.7503391 73.9839913,11.8393826 C73.528513,11.3831217 73.5261652,9.10416522 73.5261652,9.10416522 L73.5261652,5.37816522 C73.5261652,4.90390435 73.6959913,4.49616522 74.0364261,4.15573043 C74.3776435,3.81529565 74.7853826,3.64468696 75.2588609,3.64468696 L89.7480783,3.64468696 L89.7480783,7.82608696e-05 L75.2588609,7.82608696e-05 C73.7773826,7.82608696e-05 72.5103391,0.526773913 71.4592957,1.57781739" id="Fill-10"></path>
                <path d="M42.5034783,5.37808696 C42.5034783,4.9046087 42.674087,4.49686957 43.0145217,4.15565217 C43.3549565,3.81521739 43.7626957,3.6446087 44.2369565,3.6446087 L53.0170435,3.6446087 L53.0170435,3.6453913 L59.5768696,3.6453913 C60.051913,3.6453913 60.4588696,3.81521739 60.800087,4.15643478 C61.1405217,4.49686957 61.3103478,4.9046087 61.3103478,5.37886957 L61.3103478,11.0668696 L42.5034783,11.0668696 L42.5034783,5.37808696 Z M59.7036522,0 L44.2369565,0 C42.7546957,0 41.4884348,0.526695652 40.4366087,1.57773913 C39.3847826,2.62956522 38.8588696,3.8966087 38.8588696,5.37808696 L38.8588696,14.5878261 L38.8588696,18.4257391 L38.8588696,19.4008696 C39.0826957,21.8582609 41.1292174,21.5483478 42.5058261,22.5915652 C43.7063478,23.5017391 43.4324348,25.4042609 45.6793043,25.7282609 L46.2654783,25.7775652 L50.7975652,25.7775652 L65.1255652,25.7775652 L65.1255652,22.1329565 L50.7975652,22.1329565 L45.6793043,22.1329565 L44.2369565,22.1329565 C43.7626957,22.1329565 43.3549565,21.9631304 43.0145217,21.621913 C42.674087,21.2814783 42.5034783,20.8737391 42.5034783,20.3994783 L42.5034783,14.7106957 L65.1255652,14.7106957 L65.1255652,5.37808696 C65.1255652,3.8966087 64.5988696,2.62956522 63.5478261,1.57773913 C62.496,0.526695652 61.214087,0 59.7036522,0 L59.7036522,0 Z" id="Fill-12"></path>
                <path d="M32.6089565,19.990487 C32.1526957,19.5350087 32.1190435,17.2552696 32.1190435,17.2552696 L32.1190435,5.14909565 C32.0673913,3.7670087 31.5555652,2.57509565 30.5726087,1.57805217 C29.5356522,0.526226087 28.2615652,0.000313043478 26.7511304,0.000313043478 L0,0.000313043478 L0.00391304348,6.95926957 C0.072,8.16918261 3.1953913,9.69370435 3.65086957,10.1499652 C4.10713043,10.6054435 3.65086957,13.3406609 3.65086957,13.3406609 L3.65086957,25.8091826 L7.29782609,25.8091826 L7.29782609,13.3406609 C7.29782609,11.9734435 5.01886957,10.6054435 4.10713043,9.69370435 C3.65086957,9.23822609 3.65086957,6.95926957 3.65086957,6.95926957 L3.65086957,5.3784 C3.65086957,4.90413913 3.85904348,4.4964 4.20026087,4.15596522 C4.54069565,3.81553043 4.94843478,3.64492174 5.42269565,3.64492174 L12.7455652,3.64492174 C13.2190435,3.64492174 13.6267826,3.81553043 13.968,4.15596522 C14.3029565,4.49092174 14.472,4.8924 14.4766957,5.35648696 L14.4766957,11.2495304 C14.5447826,12.4594435 17.6681739,13.9839652 18.1236522,14.4402261 C18.579913,14.8957043 18.1236522,17.6309217 18.1236522,17.6309217 L18.1236522,25.8091826 L21.7706087,25.8091826 L21.7706087,18.0597913 C21.7706087,16.6925739 19.4908696,14.8957043 18.579913,13.9839652 C18.1236522,13.528487 18.1236522,11.2495304 18.1236522,11.2495304 L18.1236522,5.3784 C18.1236522,4.90413913 18.338087,4.4964 18.6785217,4.15596522 C19.0189565,3.81553043 19.4266957,3.64492174 19.9009565,3.64492174 L26.7511304,3.64492174 C27.2246087,3.64492174 27.6393913,3.81553043 27.9954783,4.15596522 C28.2913043,4.43926957 28.4564348,4.77266087 28.5065217,5.14909565 L28.5065217,17.2552696 C28.5746087,18.4659652 31.6972174,19.990487 32.1526957,20.4467478 C32.6089565,20.9022261 32.1526957,23.6374435 32.1526957,23.6374435 L32.1526957,25.8091826 L35.7996522,25.8091826 L35.7996522,24.066313 C35.7996522,22.6990957 33.5206957,20.9022261 32.6089565,19.990487" id="Fill-14"></path>
            </g>
        </g>
    </g>
</svg>